<svg xmlns="http://www.w3.org/2000/svg" viewBox="0 0 214.97 200.86"><defs><style>.cls-1{fill:#fff;}.cls-2{fill:#b39dd6;}</style></defs><g id="Layer_2" data-name="Layer 2"><g id="Layer_1-2" data-name="Layer 1"><rect class="cls-1" x="25.92" y="94.28" width="160.35" height="106.58" rx="12"/><rect class="cls-2" x="67.1" y="178.85" width="15.77" height="12.77" rx="6.39"/><rect class="cls-2" x="132.1" y="178.85" width="15.77" height="12.77" rx="6.39"/><rect class="cls-2" x="35.95" width="147.69" height="96.61" rx="12"/><path d="M89.4,170.62a9.57,9.57,0,0,1-18.85,3.32c-.91-5.2,3.47-5,8.67-5.92S88.48,165.42,89.4,170.62Z"/><path d="M144.41,173.94a9.57,9.57,0,1,1-18.84-3.32c.92-5.2,5-3.52,10.17-2.6S145.33,168.74,144.41,173.94Z"/><path d="M113.75,188.82l-3.17-3.17c.89-1.37,1.89-2.89,2.58-4,1-1.59.19-2.9-1.89-2.9H103.7c-2.09,0-2.94,1.31-1.9,2.9l2.59,4-3.17,3.17a2.27,2.27,0,1,0,3.21,3.22l3-3,3,3a2.28,2.28,0,1,0,3.22-3.22Z"/><path d="M0,189.34V11.51A11.51,11.51,0,0,1,11.51,0H62.82A11.5,11.5,0,0,1,73.48,7.19L99.94,82.28c1.06,4.68,17.68,4.83,19.21.28L144.12,7A11.5,11.5,0,0,1,154.7,0h48.76A11.51,11.51,0,0,1,215,11.51V189.34a11.51,11.51,0,0,1-11.51,11.51H174.91a11.51,11.51,0,0,1-11.51-11.51v-86.8c0-4.73-18.49-6.47-20.33-2.12l-8.74,35.41a11.5,11.5,0,0,1-10.6,7H91.24a11.51,11.51,0,0,1-10.61-7.06L73.15,99.73c-1.83-4.36-21.58-2.33-21.58,2.41v87.2a11.51,11.51,0,0,1-11.51,11.51H11.51A11.51,11.51,0,0,1,0,189.34Z"/></g></g></svg>