<svg xmlns="http://www.w3.org/2000/svg" viewBox="0 0 486.82 200.86"><defs><style>.cls-1{fill:#fff;}.cls-2{fill:#b39dd6;}</style></defs><g id="Layer_2" data-name="Layer 2"><g id="Layer_1-2" data-name="Layer 1"><rect class="cls-1" x="25.92" y="94.28" width="160.35" height="106.58" rx="12"/><rect class="cls-2" x="67.1" y="178.85" width="15.77" height="12.77" rx="6.39"/><rect class="cls-2" x="132.1" y="178.85" width="15.77" height="12.77" rx="6.39"/><rect class="cls-2" x="35.95" width="147.69" height="96.61" rx="12"/><path d="M89.4,170.62a9.57,9.57,0,0,1-18.85,3.32c-.91-5.2,3.47-5,8.67-5.92S88.48,165.42,89.4,170.62Z"/><path d="M144.41,173.94a9.57,9.57,0,1,1-18.84-3.32c.92-5.2,5-3.52,10.17-2.6S145.33,168.74,144.41,173.94Z"/><path d="M113.75,188.82l-3.17-3.17c.89-1.37,1.89-2.89,2.58-4,1-1.59.19-2.9-1.89-2.9H103.7c-2.09,0-2.94,1.31-1.9,2.9l2.59,4-3.17,3.17a2.27,2.27,0,1,0,3.21,3.22l3-3,3,3a2.28,2.28,0,1,0,3.22-3.22Z"/><path d="M0,189.34V11.51A11.51,11.51,0,0,1,11.51,0H62.82A11.5,11.5,0,0,1,73.48,7.19L99.94,82.28c1.06,4.68,17.68,4.83,19.21.28L144.12,7A11.5,11.5,0,0,1,154.7,0h48.76A11.51,11.51,0,0,1,215,11.51V189.34a11.51,11.51,0,0,1-11.51,11.51H174.91a11.51,11.51,0,0,1-11.51-11.51v-86.8c0-4.73-18.49-6.47-20.33-2.12l-8.74,35.41a11.5,11.5,0,0,1-10.6,7H91.24a11.51,11.51,0,0,1-10.61-7.06L73.15,99.73c-1.83-4.36-21.58-2.33-21.58,2.41v87.2a11.51,11.51,0,0,1-11.51,11.51H11.51A11.51,11.51,0,0,1,0,189.34Z"/><path class="cls-2" d="M225.77,150.26v-44.4h15.6l8.22,20.28,8.7-20.28h15v44.4h-11.4V123.8l-7.08,16.74H244.25l-7.08-16.86v26.58Z"/><path class="cls-2" d="M280.48,150.26v-44.4h32.16v10H292V123h17.93v9.48H292v7.8h20.93v10Z"/><path class="cls-2" d="M319.84,150.26v-44.4h11.52V140.3H352.3v10Z"/><path class="cls-2" d="M362.86,150.26V135.44L347.2,105.86h12.6l8.82,17.76,8.76-17.76H390l-15.66,29.58v14.82Z"/><path class="cls-2" d="M410.14,150.86a25.21,25.21,0,0,1-7.88-1.08,17.48,17.48,0,0,1-5.41-2.76,15.13,15.13,0,0,1-3.38-3.6,17.31,17.31,0,0,1-1.87-3.6,23.38,23.38,0,0,1-1-3.84h11.65a8.59,8.59,0,0,0,1.29,2.79,6.6,6.6,0,0,0,2.48,1.95,10.36,10.36,0,0,0,4.57.84c2.35,0,4-.45,4.95-1.35a4,4,0,0,0,1.4-2.91,2.85,2.85,0,0,0-1.05-2.31,7.83,7.83,0,0,0-3.63-1.29l-5.94-1a33.24,33.24,0,0,1-7.26-2.1,13.74,13.74,0,0,1-5.55-4.14,11.16,11.16,0,0,1-2.12-7.08,13,13,0,0,1,2.12-7.38,14.22,14.22,0,0,1,6.09-5,22.68,22.68,0,0,1,9.42-1.8,23.44,23.44,0,0,1,7.27,1,15.76,15.76,0,0,1,10,9.24,21.45,21.45,0,0,1,1,3.57H415.9a5.56,5.56,0,0,0-3.26-3.81,8.83,8.83,0,0,0-3.81-.69,8.4,8.4,0,0,0-3.64.66,4.43,4.43,0,0,0-1.92,1.62,3.72,3.72,0,0,0-.56,1.92,2.67,2.67,0,0,0,1.64,2.55,15.15,15.15,0,0,0,4,1.23l6.24,1a24.49,24.49,0,0,1,6.87,2.13,13.35,13.35,0,0,1,5.08,4.2,11.24,11.24,0,0,1,1.92,6.69,13,13,0,0,1-2.16,7.38A14.38,14.38,0,0,1,420.1,149,24.27,24.27,0,0,1,410.14,150.86Z"/><path class="cls-2" d="M429.47,150.26l14.75-44.4h15.54l14.76,44.4h-12l-2.34-7.44H443.8l-2.33,7.44ZM446.86,133h10.27L452,116.6Z"/><path d="M225.77,200.26v-44.4h10.62l16.38,24.66V155.86h11.4v44.4H253.43l-16.26-23.4v23.4Z"/><path d="M292.6,200.86a24.66,24.66,0,0,1-10.08-1.92,20.71,20.71,0,0,1-7.19-5.16,21.88,21.88,0,0,1-4.32-7.32,24.9,24.9,0,0,1-1.45-8.34,24.2,24.2,0,0,1,1.48-8.34,22,22,0,0,1,4.38-7.35,20.88,20.88,0,0,1,7.29-5.22,27.9,27.9,0,0,1,18.14-.81,17.54,17.54,0,0,1,5.56,3,17.74,17.74,0,0,1,3.56,3.87,19.17,19.17,0,0,1,2,3.87,28.06,28.06,0,0,1,1.17,4.11H301.79a10.4,10.4,0,0,0-1.59-2.94,8.48,8.48,0,0,0-2.68-2,10.05,10.05,0,0,0-4.61-.9,10.56,10.56,0,0,0-6.33,1.83,11.39,11.39,0,0,0-3.84,4.71,14.5,14.5,0,0,0-1.29,6.06,15.14,15.14,0,0,0,1.31,6.15A11.84,11.84,0,0,0,286.7,189a10.67,10.67,0,0,0,6.44,1.89,9.73,9.73,0,0,0,6-1.71,7.94,7.94,0,0,0,3-4.53H291.76v-8.88H313.6v3.66a23.81,23.81,0,0,1-2.69,11.82,17.73,17.73,0,0,1-7.41,7.23A23.5,23.5,0,0,1,292.6,200.86Z"/><path d="M337.85,200.86a24.59,24.59,0,0,1-6.79-1,17,17,0,0,1-6.05-3.12,15.27,15.27,0,0,1-4.33-5.73,21.23,21.23,0,0,1-1.62-8.79v-26.4h11.53v26.4a8.83,8.83,0,0,0,1.73,5.52q1.74,2.28,5.53,2.28t5.51-2.28a8.83,8.83,0,0,0,1.74-5.52v-26.4h11.53v26.4a21.23,21.23,0,0,1-1.62,8.79,15.27,15.27,0,0,1-4.33,5.73,17.09,17.09,0,0,1-6.05,3.12A24.62,24.62,0,0,1,337.85,200.86Z"/><path d="M377.09,200.26V185.44l-15.66-29.58H374l8.83,17.76,8.75-17.76h12.66L388.6,185.44v14.82Z"/><path d="M409.06,200.26v-44.4h32.16v10H420.58V173h17.94v9.48H420.58v7.8h20.94v10Z"/><path d="M448.42,200.26v-44.4H459l16.38,24.66V155.86h11.4v44.4H476.08l-16.26-23.4v23.4Z"/></g></g></svg>